<!DOCTYPE svg PUBLIC "-//W3C//DTD SVG 20010904//EN" "http://www.w3.org/TR/2001/REC-SVG-20010904/DTD/svg10.dtd">
<svg version="1.0" xmlns="http://www.w3.org/2000/svg" width="900px" height="1600px" viewBox="0 0 9000 16000" preserveAspectRatio="xMidYMid meet">
<g id="layer1" fill="#ffffff" stroke="none">
 <path d="M0 8000 l0 -8000 4500 0 4500 0 0 8000 0 8000 -4500 0 -4500 0 0 -8000z m3946 861 c198 -52 302 -126 370 -266 27 -57 29 -67 28 -185 0 -116 -2 -129 -29 -185 -35 -74 -87 -139 -139 -174 -62 -41 -129 -81 -156 -92 -14 -6 -38 -17 -55 -26 -16 -8 -43 -19 -60 -23 -26 -8 -133 -46 -261 -94 -161 -60 -244 -136 -244 -224 0 -51 48 -128 104 -164 49 -32 56 -33 161 -36 62 -2 125 1 146 7 21 6 62 35 93 64 49 46 56 58 62 105 l7 52 183 0 184 0 0 -55 c0 -86 -50 -193 -125 -270 -146 -148 -342 -206 -632 -185 -141 11 -267 54 -375 131 -37 26 -98 85 -98 94 0 4 -11 21 -24 38 -30 42 -56 139 -56 213 1 154 68 280 195 362 41 26 277 137 310 145 18 5 129 45 253 91 53 20 129 73 156 109 17 24 21 43 21 110 0 105 -20 136 -112 180 -62 28 -68 29 -176 25 -129 -5 -188 -25 -250 -86 -38 -37 -77 -122 -77 -167 l0 -25 -185 0 c-157 0 -185 2 -185 15 0 8 7 52 16 97 19 98 59 175 125 238 45 44 133 110 147 110 4 0 29 11 57 25 96 46 236 74 381 74 114 1 147 -3 240 -28z m1650 0 c198 -52 302 -126 370 -266 27 -57 29 -67 28 -185 0 -116 -2 -129 -29 -185 -35 -74 -87 -139 -139 -174 -62 -41 -129 -81 -156 -92 -14 -6 -38 -17 -55 -26 -16 -8 -43 -19 -60 -23 -26 -8 -133 -46 -261 -94 -161 -60 -244 -136 -244 -224 0 -51 48 -128 104 -164 49 -32 56 -33 161 -36 62 -2 125 1 146 7 21 6 62 35 93 64 49 46 56 58 62 105 l7 52 183 0 184 0 0 -55 c0 -86 -50 -193 -125 -270 -146 -148 -342 -206 -632 -185 -141 11 -267 54 -375 131 -37 26 -98 85 -98 94 0 4 -11 21 -24 38 -30 42 -56 139 -56 213 1 154 68 280 195 362 41 26 277 137 310 145 18 5 129 45 253 91 53 20 129 73 156 109 17 24 21 43 21 110 0 105 -20 136 -112 180 -62 28 -68 29 -176 25 -129 -5 -188 -25 -250 -86 -38 -37 -77 -122 -77 -167 l0 -25 -185 0 c-157 0 -185 2 -185 15 0 8 7 52 16 97 19 98 59 175 125 238 45 44 133 110 147 110 4 0 29 11 57 25 96 46 236 74 381 74 114 1 147 -3 240 -28z m1679 -4 c44 -13 105 -38 135 -53 70 -37 157 -124 194 -194 35 -68 86 -239 86 -291 l0 -39 -184 0 -183 0 -7 31 c-3 17 -6 46 -6 63 0 53 -53 151 -101 185 -57 42 -109 54 -204 49 -136 -8 -224 -70 -287 -203 l-33 -70 0 -345 0 -345 34 -70 c36 -75 104 -149 158 -172 20 -8 72 -13 140 -13 101 0 111 2 160 30 81 46 126 125 138 243 l7 67 186 0 185 0 -6 -57 c-11 -112 -62 -244 -133 -343 -30 -42 -114 -120 -129 -120 -4 0 -20 -9 -35 -20 -16 -11 -70 -34 -121 -51 -89 -29 -101 -31 -259 -31 -154 0 -171 2 -245 27 -218 75 -354 210 -430 430 -27 78 -28 86 -33 350 -6 363 5 457 69 600 66 148 225 283 392 335 115 36 142 39 287 36 122 -3 158 -7 225 -29z m-5583 -289 l3 -303 215 -7 c247 -7 319 -16 410 -49 224 -82 354 -257 367 -492 5 -88 3 -106 -23 -185 -67 -208 -209 -331 -444 -385 -75 -17 -134 -20 -497 -24 l-413 -5 0 876 0 876 190 0 190 0 2 -302z"/>
 <path d="M1695 7957 c-3 -7 -4 -131 -3 -277 l3 -265 217 0 c160 0 220 3 230 13 6 6 19 12 28 12 23 0 84 66 114 124 37 70 37 184 1 261 -31 64 -96 120 -156 134 -67 16 -428 14 -434 -2z"/>
 </g>

</svg>