<!DOCTYPE svg PUBLIC "-//W3C//DTD SVG 20010904//EN" "http://www.w3.org/TR/2001/REC-SVG-20010904/DTD/svg10.dtd">
<svg version="1.0" xmlns="http://www.w3.org/2000/svg" width="1600px" height="900px" viewBox="0 0 16000 9000" preserveAspectRatio="xMidYMid meet">
<g id="layer1" fill="#ffffff" stroke="none">
 <path d="M0 4500 l0 -4500 8000 0 8000 0 0 4500 0 4500 -8000 0 -8000 0 0 -4500z m7125 1021 c119 -32 231 -89 302 -155 112 -103 154 -204 155 -366 0 -192 -62 -316 -220 -434 -107 -82 -262 -150 -462 -206 -257 -71 -411 -161 -454 -265 -37 -89 -12 -206 61 -280 81 -82 174 -115 323 -115 161 0 275 42 348 129 50 60 67 93 82 164 l11 57 155 0 154 0 -6 -42 c-28 -197 -109 -327 -267 -432 -137 -90 -271 -126 -469 -126 -269 0 -492 89 -620 247 -150 186 -139 479 25 646 74 76 225 167 349 212 82 30 223 75 235 75 24 0 184 59 249 92 200 100 256 321 118 462 -82 82 -183 116 -350 116 -163 0 -287 -41 -372 -123 -59 -57 -87 -110 -102 -189 l-12 -68 -154 0 c-92 0 -154 4 -154 10 0 5 5 44 11 87 38 259 253 448 594 519 97 20 371 12 470 -15z m2184 18 c163 -26 297 -88 398 -182 105 -99 146 -201 145 -362 0 -109 -21 -190 -69 -273 -80 -137 -267 -256 -528 -336 -306 -95 -355 -114 -442 -178 -146 -107 -152 -286 -14 -410 74 -66 142 -90 272 -96 124 -5 195 8 278 49 97 49 157 129 181 242 l11 57 156 0 155 0 -6 -27 c-3 -16 -8 -50 -12 -78 -8 -68 -73 -199 -129 -262 -55 -63 -187 -152 -269 -182 -131 -48 -358 -66 -502 -40 -242 43 -419 159 -498 324 -56 116 -68 211 -42 332 47 221 227 364 611 487 44 14 85 26 91 26 24 0 171 53 240 86 161 78 235 219 190 366 -42 140 -189 218 -406 218 -169 0 -288 -40 -379 -125 -56 -52 -85 -108 -102 -192 l-12 -63 -154 0 -155 0 7 53 c18 142 59 240 133 320 112 119 276 204 467 243 77 15 299 17 384 3z m2296 -4 c200 -38 350 -128 448 -268 70 -100 103 -196 122 -354 l6 -53 -155 0 -154 0 -6 28 c-3 15 -8 49 -12 77 -15 107 -102 237 -187 282 -106 54 -286 70 -392 33 -129 -44 -206 -115 -274 -252 -62 -127 -71 -193 -71 -529 0 -157 5 -312 10 -345 24 -138 75 -239 166 -330 89 -89 148 -115 280 -122 151 -7 262 28 352 112 72 67 102 136 127 289 l6 37 156 0 155 0 -7 -67 c-32 -297 -184 -492 -450 -577 -114 -36 -183 -46 -311 -46 -238 0 -412 68 -561 217 -107 108 -166 215 -216 393 -20 70 -22 98 -22 440 0 395 1 401 61 562 76 200 254 376 451 445 126 43 335 56 478 28z m-7463 -397 l3 -393 310 -6 c291 -6 316 -8 407 -33 250 -66 393 -204 453 -437 24 -92 17 -289 -14 -378 -40 -113 -118 -219 -208 -282 -51 -35 -133 -77 -176 -90 -128 -38 -179 -42 -639 -46 l-458 -5 0 1031 0 1031 160 0 160 0 2 -392z"/>
 <path d="M4145 4468 c-3 -7 -4 -175 -3 -373 l3 -360 300 0 300 0 57 27 c116 54 185 147 208 281 30 170 -52 337 -198 405 l-57 27 -303 3 c-243 3 -303 1 -307 -10z"/>
 </g>

</svg>